<svg width="56" height="56" viewBox="0 0 56 56" fill="none" xmlns="http://www.w3.org/2000/svg">
<path d="M42.8494 13.1508C51.0511 21.3524 51.0511 34.6478 42.8494 42.8494C34.6478 51.0511 21.3524 51.0511 13.1508 42.8494C4.9491 34.6478 4.9491 21.3524 13.1508 13.1508C21.3524 4.94909 34.6478 4.94909 42.8494 13.1508Z" stroke="#0B0B0B" stroke-width="2.5" stroke-linecap="round" stroke-linejoin="round"/>
<path d="M42.8494 13.1508C51.0511 21.3524 51.0511 34.6478 42.8494 42.8494C34.6478 51.0511 21.3524 51.0511 13.1508 42.8494C4.9491 34.6478 4.9491 21.3524 13.1508 13.1508C21.3524 4.94909 34.6478 4.94909 42.8494 13.1508Z" stroke="#0B0B0B" stroke-width="2.5" stroke-linecap="round" stroke-linejoin="round"/>
<path d="M27.9995 16.3335V32.6668" stroke="#0B0B0B" stroke-width="2.5" stroke-linecap="round" stroke-linejoin="round"/>
<path d="M32.7259 27.9419L28.0009 32.6669L23.2759 27.9419" stroke="#0B0B0B" stroke-width="2.5" stroke-linecap="round" stroke-linejoin="round"/>
<path d="M19.7485 36.2505C24.3055 40.8075 31.6905 40.8075 36.2475 36.2505" stroke="#0B0B0B" stroke-width="2.5" stroke-linecap="round" stroke-linejoin="round"/>
</svg>
