<svg width="52" height="52" viewBox="0 0 52 52" fill="none" xmlns="http://www.w3.org/2000/svg">
<g clip-path="url(#clip0)">
<path d="M12.447 13.5994C9.22 17.0569 6.91504 21.8973 6.91504 28.1207C6.91504 32.7306 8.52851 37.1101 11.064 40.5675C14.0604 44.486 18.4399 46.7909 20.7448 47.7129V46.0994C20.7448 46.0994 20.7448 42.4115 22.8193 39.1845C18.2094 38.954 14.5214 34.5746 14.5214 29.5037C14.5214 27.6597 15.2129 26.0462 16.3654 24.6633L16.5959 20.2838C16.5959 19.1314 17.7484 18.4399 18.9009 18.6704L23.7413 20.5143C25.1243 20.2838 26.5072 20.0533 28.1207 20.0533C29.7342 20.0533 31.1172 20.2838 32.5001 20.5143L36.6491 18.4399C37.8016 17.9789 38.954 18.9009 38.954 20.0533L39.1845 24.4328C40.337 25.8157 41.0285 27.6597 41.0285 29.2732C41.0285 34.3441 37.3406 38.4931 32.7306 38.954C34.8051 42.181 34.8051 45.8689 34.8051 45.8689V47.4824C37.1101 46.5604 41.4895 44.2555 44.486 40.337C47.0214 37.1101 48.6349 32.5001 48.6349 27.8902C48.6349 21.6668 46.3299 16.8264 43.103 13.3689C38.7235 8.98951 32.7306 6.91504 27.6597 6.91504C22.5888 6.91504 16.5959 8.98951 12.447 13.5994Z" stroke="#0B0B0B" stroke-width="2.5" stroke-linecap="round" stroke-linejoin="round"/>
</g>
<defs>
<clipPath id="clip0">
<rect width="52" height="52" fill="white"/>
</clipPath>
</defs>
</svg>
