<?xml version="1.0" encoding="UTF-8"?>
<svg width="363px" height="55px" viewBox="0 0 363 55" version="1.1" xmlns="http://www.w3.org/2000/svg" xmlns:xlink="http://www.w3.org/1999/xlink">
  <title>logo-framework-dark</title>
  <g id="Page-1" stroke="none" stroke-width="1" fill="none" fill-rule="evenodd">
    <g id="hero-components" transform="translate(-621.000000, -137.000000)">
      <rect id="Rectangle" fill="#000000" x="0" y="0" width="1600" height="1000"></rect>
      <g id="Group-9" transform="translate(-18.000000, -174.000000)">
        <g id="bolt" opacity="0.0899999961" transform="translate(667.000000, 0.000000)">
          <polygon id="Fill" fill="#FD5750" points="3.02825218 813.810016 2 835.120698 472.004724 768.385785 107.162155 1335.63254 105.759993 1369 1031 568.892886 1031 551.497319 639.983739 597.010529 1011.79038 24.1580384 1011.79038 0"></polygon>
          <polygon id="Stroke-2" stroke="#FD5750" stroke-width="42" points="1.96556976 813.840772 1012.03443 0 1014 246.528084 796.570545 584.886879 422.176305 899.131213 0 964"></polygon>
        </g>
        <g id="logo-framework-dark" transform="translate(639.000000, 313.000000)">
          <g id="bolt" transform="translate(166.333333, 0.000000)">
            <polygon id="Fill" fill="#FD5750" points="0.802631579 25.5069444 0.770467836 26.1722222 15.4722222 24.0888889 4.05994152 41.7972222 4.01608187 42.8388889 32.9576023 17.8611111 32.9576023 17.3180556 20.7266082 18.7388889 32.3567251 0.855555556 32.3567251 0.101388889"></polygon>
            <polygon id="Stroke-1" stroke="#FD5750" stroke-width="2.5" points="4.06111111 41.7975 4.06111111 49.5225 33.1181287 24.61 32.9587719 17.3183333 18.7730994 18.9683333"></polygon>
            <polygon id="Stroke-2" stroke="#FD5750" stroke-width="2" points="0.803070175 25.5065278 32.3571637 0.100972222 32.4185673 7.79680556 25.6261696 18.3593056 13.9302632 28.1690278 0.741666667 30.1940278"></polygon>
          </g>
          <path d="M12.25,32.8466667 C12.85,32.2766667 13.54,31.1666667 13.45,29.4566667 C13.27,25.7666667 9.67,25.3466667 7.27,25.0466667 C4.27,24.7166667 3.79,24.3866667 3.76,23.4866667 C3.76,22.3466667 5.32,21.7766667 6.73,21.8366667 C9.4,21.9266667 11.8,22.8266667 11.8,22.8266667 L12.76,19.8566667 C12.64,19.8266667 9.94,18.9866667 6.82,18.8966667 C3.58,18.8066667 0.61,20.3066667 0.7,23.5466667 C0.76,27.4466667 4.48,27.8666667 6.91,28.1366667 C9.67,28.4666667 10.42,28.7666667 10.48,29.6066667 C10.51,30.2366667 10.48,31.9166667 6.58,31.6166667 C4,31.4066667 1.69,30.2366667 1.66,30.2066667 L0.37,32.9066667 C0.52,32.9666667 3.34,34.3466667 6.64,34.4366667 C8.32,34.4966667 10.72,34.4066667 12.25,32.8466667 Z M23.4625,34.4066667 C26.4025,34.4066667 29.3125,33.2066667 29.3125,33.2066667 L28.5325,30.5366667 C28.5325,30.5366667 25.9525,31.5566667 23.5825,31.5566667 C20.5525,31.5566667 19.0225,29.6366667 19.0225,27.8066667 L30.1225,27.8066667 L30.1232053,26.0303602 C30.1298437,25.4816146 30.06875,18.8966667 23.3125,18.8966667 C17.0503462,18.8966667 15.8488124,24.3062951 15.8133243,26.5059422 L15.8125,26.6066667 C15.8125,28.6166667 16.5925,34.4066667 23.4625,34.4066667 Z M27.0925,25.1366667 L19.0525,25.1366667 C19.0525,25.1366667 19.4125,21.8666667 23.3125,21.8666667 C27.3025,21.8666667 27.0925,25.1366667 27.0925,25.1366667 Z M36.985,34.1666667 L36.985,24.7766667 C36.985,23.7266667 38.335,22.3166667 39.685,22.3166667 L44.905,22.3166667 L44.905,19.1666667 L40.135,19.1666667 C37.435,19.1666667 36.745,21.6266667 36.745,22.0766667 L36.565,19.1666667 L33.625,19.1666667 L33.625,19.1666667 L33.625,34.1666667 L36.985,34.1666667 L36.985,34.1666667 Z M56.7175,34.1666667 L61.4875,19.1666667 L58.2775,19.1666667 L54.3175,31.2566667 L50.7775,19.1666667 L47.3875,19.1666667 L51.9475,34.1666667 L56.7175,34.1666667 Z M70.9,34.4066667 C73.84,34.4066667 76.75,33.2066667 76.75,33.2066667 L75.97,30.5366667 C75.97,30.5366667 73.39,31.5566667 71.02,31.5566667 C67.99,31.5566667 66.46,29.6366667 66.46,27.8066667 L77.56,27.8066667 L77.5607053,26.0303602 C77.5673437,25.4816146 77.50625,18.8966667 70.75,18.8966667 C64.4878462,18.8966667 63.2863124,24.3062951 63.2508243,26.5059422 L63.25,26.6066667 C63.25,28.6166667 64.03,34.4066667 70.9,34.4066667 Z M74.53,25.1366667 L66.49,25.1366667 C66.49,25.1366667 66.85,21.8666667 70.75,21.8666667 C74.74,21.8666667 74.53,25.1366667 74.53,25.1366667 Z M84.4225,34.1666667 L84.4225,24.7766667 C84.4225,23.7266667 85.7725,22.3166667 87.1225,22.3166667 L92.3425,22.3166667 L92.3425,19.1666667 L87.5725,19.1666667 C84.8725,19.1666667 84.1825,21.6266667 84.1825,22.0766667 L84.0025,19.1666667 L81.0625,19.1666667 L81.0625,19.1666667 L81.0625,34.1666667 L84.4225,34.1666667 L84.4225,34.1666667 Z M106.555,34.1666667 L106.555,31.0166667 L100.375,31.0166667 L100.375,13.1666667 L92.365,13.1666667 L92.365,15.9266667 L97.165,15.9266667 L97.165,34.1666667 L106.555,34.1666667 Z M116.2375,34.4066667 C119.1775,34.4066667 122.0875,33.2066667 122.0875,33.2066667 L121.3075,30.5366667 C121.3075,30.5366667 118.7275,31.5566667 116.3575,31.5566667 C113.3275,31.5566667 111.7975,29.6366667 111.7975,27.8066667 L122.8975,27.8066667 L122.898205,26.0303602 C122.904844,25.4816146 122.84375,18.8966667 116.0875,18.8966667 C109.825346,18.8966667 108.623812,24.3062951 108.588324,26.5059422 L108.5875,26.6066667 C108.5875,28.6166667 109.3675,34.4066667 116.2375,34.4066667 Z M119.8675,25.1366667 L111.8275,25.1366667 C111.8275,25.1366667 112.1875,21.8666667 116.0875,21.8666667 C120.0775,21.8666667 119.8675,25.1366667 119.8675,25.1366667 Z M137.05,32.8466667 C137.65,32.2766667 138.34,31.1666667 138.25,29.4566667 C138.07,25.7666667 134.47,25.3466667 132.07,25.0466667 C129.07,24.7166667 128.59,24.3866667 128.56,23.4866667 C128.56,22.3466667 130.12,21.7766667 131.53,21.8366667 C134.2,21.9266667 136.6,22.8266667 136.6,22.8266667 L137.56,19.8566667 C137.44,19.8266667 134.74,18.9866667 131.62,18.8966667 C128.38,18.8066667 125.41,20.3066667 125.5,23.5466667 C125.56,27.4466667 129.28,27.8666667 131.71,28.1366667 C134.47,28.4666667 135.22,28.7666667 135.28,29.6066667 C135.31,30.2366667 135.28,31.9166667 131.38,31.6166667 C128.8,31.4066667 126.49,30.2366667 126.46,30.2066667 L125.17,32.9066667 C125.32,32.9666667 128.14,34.3466667 131.44,34.4366667 C133.12,34.4966667 135.52,34.4066667 137.05,32.8466667 Z M152.455,32.8466667 C153.055,32.2766667 153.745,31.1666667 153.655,29.4566667 C153.475,25.7666667 149.875,25.3466667 147.475,25.0466667 C144.475,24.7166667 143.995,24.3866667 143.965,23.4866667 C143.965,22.3466667 145.525,21.7766667 146.935,21.8366667 C149.605,21.9266667 152.005,22.8266667 152.005,22.8266667 L152.965,19.8566667 C152.845,19.8266667 150.145,18.9866667 147.025,18.8966667 C143.785,18.8066667 140.815,20.3066667 140.905,23.5466667 C140.965,27.4466667 144.685,27.8666667 147.115,28.1366667 C149.875,28.4666667 150.625,28.7666667 150.685,29.6066667 C150.715,30.2366667 150.685,31.9166667 146.785,31.6166667 C144.205,31.4066667 141.895,30.2366667 141.865,30.2066667 L140.575,32.9066667 C140.725,32.9666667 143.545,34.3466667 146.845,34.4366667 C148.525,34.4966667 150.925,34.4066667 152.455,32.8466667 Z" id="serverless" fill="#FFFFFF" fill-rule="nonzero"></path>
          <path d="M218.006667,34.1666667 L218.006667,22.4366667 L222.296667,22.4366667 L222.296667,19.4666667 L218.006667,19.4666667 L218.006667,18.5666667 C218.006667,17.4866667 217.886667,16.3166667 219.446667,16.3166667 L222.896667,16.3166667 L222.896667,13.1666667 L219.206667,13.1666667 C215.726667,13.1666667 214.796667,15.8666667 214.796667,17.7266667 L214.796667,19.4666667 L212.096667,19.4666667 L212.096667,22.4366667 L214.796667,22.4366667 L214.796667,34.1666667 L218.006667,34.1666667 Z M229.939167,34.1666667 L229.939167,24.7766667 C229.939167,23.7266667 231.289167,22.3166667 232.639167,22.3166667 L237.859167,22.3166667 L237.859167,19.1666667 L233.089167,19.1666667 C230.389167,19.1666667 229.699167,21.6266667 229.699167,22.0766667 L229.519167,19.1666667 L226.579167,19.1666667 L226.579167,19.1666667 L226.579167,34.1666667 L229.939167,34.1666667 L229.939167,34.1666667 Z M245.471667,34.3466667 C248.861667,34.3466667 250.361667,32.0966667 250.361667,32.0966667 L250.571667,34.1666667 L253.451667,34.1666667 L253.451667,25.4966667 C253.451667,20.9366667 250.901667,18.8666667 246.911667,18.8666667 C244.721667,18.8666667 241.031667,19.7966667 241.031667,19.7966667 L241.931667,22.7066667 C241.931667,22.7066667 244.481667,21.8666667 247.301667,21.8666667 C250.661667,21.8666667 250.361667,24.7166667 250.361667,24.7166667 C249.881667,24.7166667 247.751667,24.7466667 245.051667,24.7466667 C241.541667,24.7466667 239.591667,27.0566667 239.591667,29.2766667 C239.591667,31.5266667 241.361667,34.3466667 245.471667,34.3466667 Z M245.861667,31.5266667 C243.821667,31.5266667 242.861667,30.5066667 242.861667,29.2766667 C242.861667,28.1666667 243.611667,27.4166667 245.651667,27.4166667 C248.531667,27.4166667 250.451667,27.4466667 250.451667,27.4466667 L250.451667,29.6366667 C250.451667,29.6366667 248.861667,31.5266667 245.861667,31.5266667 Z M260.764167,34.1666667 L260.764167,24.0866667 C260.884167,22.7966667 261.784167,22.1066667 262.924167,22.1066667 C264.004167,22.1066667 264.844167,22.7966667 264.844167,24.1166667 L264.844167,34.1666667 L267.934167,34.1666667 L267.934167,24.4166667 C267.934167,22.8566667 268.684167,22.1066667 269.914167,22.1066667 C271.444167,22.1066667 271.834167,22.9166667 271.834167,24.2366667 L271.834167,34.1666667 L275.044167,34.1666667 L275.044167,22.1966667 C275.044167,21.2366667 273.754167,19.0466667 271.114167,19.0466667 C267.874167,19.0466667 267.304167,21.4166667 267.304167,21.4166667 C267.304167,21.4166667 266.704167,19.0166667 263.854167,19.0166667 C261.694167,19.0166667 260.644167,20.9966667 260.644167,20.9966667 L260.524167,19.1666667 L257.494167,19.1666667 L257.494167,34.1666667 L260.764167,34.1666667 Z M285.566667,34.4066667 C288.506667,34.4066667 291.416667,33.2066667 291.416667,33.2066667 L290.636667,30.5366667 C290.636667,30.5366667 288.056667,31.5566667 285.686667,31.5566667 C282.656667,31.5566667 281.126667,29.6366667 281.126667,27.8066667 L292.226667,27.8066667 L292.227372,26.0303602 C292.23401,25.4816146 292.172917,18.8966667 285.416667,18.8966667 C279.056667,18.8966667 277.916667,24.4766667 277.916667,26.6066667 C277.916667,28.6166667 278.696667,34.4066667 285.566667,34.4066667 Z M289.196667,25.1366667 L281.156667,25.1366667 C281.156667,25.1366667 281.516667,21.8666667 285.416667,21.8666667 C289.406667,21.8666667 289.196667,25.1366667 289.196667,25.1366667 Z M301.219167,34.1666667 L303.439167,22.8866667 L303.469167,22.8566667 L303.499167,22.8866667 L305.719167,34.1666667 L309.769167,34.1666667 L312.259167,19.1666667 L309.079167,19.1666667 L307.639167,30.5066667 L305.329167,19.2266667 L305.359167,19.1666667 L301.579167,19.1666667 L301.609167,19.2266667 L299.299167,30.5066667 L297.859167,19.1666667 L294.679167,19.1666667 L297.169167,34.1666667 L301.219167,34.1666667 Z M322.301667,34.4366667 C326.981667,34.4366667 329.921667,31.1966667 329.921667,26.6066667 C329.921667,21.7766667 326.981667,18.8966667 322.301667,18.8966667 C317.351667,18.8966667 314.351667,21.7766667 314.351667,26.6066667 C314.351667,31.1966667 317.351667,34.4366667 322.301667,34.4366667 Z M322.301667,31.3466667 C318.761667,31.3466667 317.621667,29.3366667 317.621667,26.6066667 C317.621667,24.2366667 318.761667,21.7466667 322.301667,21.7466667 C325.541667,21.7466667 326.801667,24.2366667 326.801667,26.6066667 C326.801667,29.3366667 325.541667,31.3466667 322.301667,31.3466667 Z M336.394167,34.1666667 L336.394167,24.7766667 C336.394167,23.7266667 337.744167,22.3166667 339.094167,22.3166667 L344.314167,22.3166667 L344.314167,19.1666667 L339.544167,19.1666667 C336.844167,19.1666667 336.154167,21.6266667 336.154167,22.0766667 L335.974167,19.1666667 L333.034167,19.1666667 L333.034167,19.1666667 L333.034167,34.1666667 L336.394167,34.1666667 L336.394167,34.1666667 Z M351.296667,34.1666667 L351.296667,26.6366667 L357.836667,34.1666667 L362.456667,34.1666667 L354.476667,25.5566667 L361.286667,19.1666667 L357.026667,19.1666667 L351.296667,24.6566667 L351.296667,13.1666667 L345.086667,13.1666667 L345.086667,15.9266667 L348.086667,15.9266667 L348.086667,34.1666667 L351.296667,34.1666667 Z" id="framework" fill="#FFFFFF" fill-rule="nonzero"></path>
        </g>
      </g>
    </g>
  </g>
</svg>
